<?xml version="1.0" standalone="no"?>
<!DOCTYPE svg PUBLIC "-//W3C//DTD SVG 20010904//EN"
 "http://www.w3.org/TR/2001/REC-SVG-20010904/DTD/svg10.dtd">
<svg version="1.0" xmlns="http://www.w3.org/2000/svg"
 width="348.000000pt" height="348.000000pt" viewBox="0 0 348.000000 348.000000"
 preserveAspectRatio="xMidYMid meet">

<g transform="translate(0.000000,348.000000) scale(0.100000,-0.100000)"
fill="#000000" stroke="none">
<path d="M1605 3459 c-27 -4 -129 -20 -225 -34 -206 -31 -447 -79 -539 -107
-111 -33 -314 -137 -564 -288 -160 -96 -242 -151 -250 -167 -13 -28 -5 -60 41
-173 17 -41 57 -140 88 -220 238 -612 576 -1019 965 -1161 87 -32 98 -30 99
16 0 36 67 286 109 409 22 66 39 121 38 122 -6 6 -83 -19 -128 -42 -69 -34
-189 -134 -250 -208 -30 -36 -57 -65 -60 -65 -22 -3 43 219 89 303 38 69 125
154 191 185 45 21 74 27 151 29 l95 4 70 151 c102 221 166 277 318 277 49 0
69 -5 108 -30 l49 -30 0 28 c0 88 -50 379 -90 532 -32 118 -110 371 -128 413
-26 62 -66 75 -177 56z m30 -720 c27 -11 72 -36 99 -55 l49 -37 -34 -29 c-19
-16 -61 -43 -94 -61 -56 -30 -67 -32 -155 -32 -105 1 -146 14 -229 75 l-44 33
34 28 c42 35 142 85 195 98 49 12 113 5 179 -20z m-645 -226 c0 -20 -31 -106
-54 -152 -63 -123 -153 -178 -306 -188 -55 -4 -90 -2 -90 4 0 20 33 119 52
156 24 48 80 111 122 137 18 11 57 26 87 34 57 15 189 21 189 9z"/>
<path d="M1782 2267 c-12 -12 -55 -92 -95 -177 -355 -741 -417 -1338 -180
-1742 41 -70 130 -168 190 -209 59 -41 179 -64 293 -55 268 19 522 149 766
391 200 199 336 388 513 713 39 72 87 153 106 182 37 55 46 112 23 142 -12 14
-268 204 -419 310 -179 127 -376 232 -548 295 -105 38 -580 173 -609 173 -10
0 -28 -10 -40 -23z m194 -714 c56 -19 164 -120 202 -191 l23 -42 -28 -12 c-15
-6 -66 -12 -113 -12 -77 -1 -92 2 -152 32 -73 36 -131 93 -179 177 l-29 50 23
7 c47 13 203 8 253 -9z m695 -336 c72 -30 176 -149 194 -220 6 -24 4 -26 -40
-33 -131 -19 -254 17 -344 101 -50 47 -112 148 -98 161 11 12 136 20 197 13
30 -4 71 -13 91 -22z m-1021 -146 c0 -5 27 -49 59 -98 65 -97 171 -205 241
-246 94 -55 248 -76 415 -57 58 7 108 10 111 7 9 -8 -128 -106 -206 -146 -306
-160 -544 -47 -615 289 -20 96 -30 260 -16 260 6 0 11 -4 11 -9z"/>
</g>
</svg>
